{
	"asset":{
		"generator":"Khronos glTF Blender I/O v4.4.56",
		"version":"2.0"
	},
	"scene":0,
	"scenes":[
		{
			"name":"Scene",
			"nodes":[
				0
			]
		}
	],
	"nodes":[
		{
			"mesh":0,
			"name":"SpaceStationModule"
		}
	],
	"materials":[
		{
			"doubleSided":true,
			"name":"SpaceStation_Hull",
			"pbrMetallicRoughness":{
				"baseColorFactor":[
					0.699999988079071,
					0.75,
					0.8500000238418579,
					1
				],
				"metallicFactor":0.30000001192092896,
				"roughnessFactor":0.4000000059604645
			}
		}
	],
	"meshes":[
		{
			"name":"Cube.012",
			"primitives":[
				{
					"attributes":{
						"POSITION":0,
						"NORMAL":1,
						"TEXCOORD_0":2
					},
					"indices":3,
					"material":0
				}
			]
		}
	],
	"accessors":[
		{
			"bufferView":0,
			"componentType":5126,
			"count":4882,
			"max":[
				1.600000023841858,
				2.549999952316284,
				4.400000095367432
			],
			"min":[
				-1.600000023841858,
				-2.702889919281006,
				-5.655945777893066
			],
			"type":"VEC3"
		},
		{
			"bufferView":1,
			"componentType":5126,
			"count":4882,
			"type":"VEC3"
		},
		{
			"bufferView":2,
			"componentType":5126,
			"count":4882,
			"type":"VEC2"
		},
		{
			"bufferView":3,
			"componentType":5123,
			"count":8598,
			"type":"SCALAR"
		}
	],
	"bufferViews":[
		{
			"buffer":0,
			"byteLength":58584,
			"byteOffset":0,
			"target":34962
		},
		{
			"buffer":0,
			"byteLength":58584,
			"byteOffset":58584,
			"target":34962
		},
		{
			"buffer":0,
			"byteLength":39056,
			"byteOffset":117168,
			"target":34962
		},
		{
			"buffer":0,
			"byteLength":17196,
			"byteOffset":156224,
			"target":34963
		}
	],
	"buffers":[
		{
			"byteLength":173420,
			"uri":"space_station_module.bin"
		}
	]
}
